<svg width="180" height="56" viewBox="0 0 180 56" fill="none" xmlns="http://www.w3.org/2000/svg">
<path fill-rule="evenodd" clip-rule="evenodd" d="M47.0126 9.28157V7.20312L41.267 9.3387H41.2561V11.4715H41.267L47.0126 13.6071V11.526L44.0664 10.3997L47.0126 9.27885V9.28157Z" fill="#F7DD43"/>
<path fill-rule="evenodd" clip-rule="evenodd" d="M80.2922 13.5037V11.4253L83.2358 10.3072L80.2922 9.18908V7.11063L86.0297 9.24621H86.0433V11.3818H86.0297L80.2922 13.5065V13.5037ZM77.8275 4.1698L74.4541 15H76.4564L79.8298 4.1698H77.8275Z" fill="#F7DD43"/>
<path fill-rule="evenodd" clip-rule="evenodd" d="M55.4544 6.91743C56.0257 7.54314 56.3249 8.37017 56.2896 9.21624V13.8302H54.2873V9.64063C54.3118 9.17271 54.1621 8.71567 53.8683 8.35113C53.5908 8.02739 53.1801 7.84784 52.7529 7.86688C51.4988 7.86688 50.8704 8.73743 50.8704 10.4758V13.8302H48.8681V6.25636H50.8704V6.9392C51.507 6.32165 52.3694 5.99247 53.2562 6.03056C54.0833 5.9952 54.8831 6.31893 55.4544 6.91743Z" fill="#F7DD43"/>
<path fill-rule="evenodd" clip-rule="evenodd" d="M58.8413 3V13.8302H60.8436V3H58.8413Z" fill="#F7DD43"/>
<path fill-rule="evenodd" clip-rule="evenodd" d="M72.1661 13.8302H70.4958L68.858 9.36862L67.204 13.8302H65.5336L62.7261 6.2428H64.8671L66.445 10.7806L68.0718 6.2428H69.6361L71.2629 10.7942L72.8408 6.2428H74.9818L72.1716 13.8302H72.1661Z" fill="#F7DD43"/>
<path d="M95.5796 17.9981C93.6532 17.9981 91.6295 17.6331 90.0433 16.754V1.24411C91.6046 0.389878 93.6284 2.85548e-05 95.5796 2.85548e-05C97.5307 2.85548e-05 99.5067 0.365035 101.066 1.24411V7.19505H97.139V3.14558C96.6765 2.95066 96.1146 2.87804 95.5547 2.87804C94.9948 2.87804 94.4807 2.95066 93.9934 3.14558V14.8525C94.4559 15.0475 94.9929 15.1201 95.5547 15.1201C96.1166 15.1201 96.6516 15.0475 97.139 14.8525V10.805H101.066V16.7559C99.5296 17.6101 97.5059 17.9752 95.5796 18V17.9981Z" fill="#F7DD43"/>
<path d="M108.431 17.9981C106.358 17.9981 104.359 17.5585 102.773 16.6565V1.3167C104.334 0.439536 106.335 0 108.431 0C110.528 0 112.479 0.414693 114.04 1.3167V16.6565C112.504 17.5585 110.48 17.9732 108.431 17.9981ZM110.115 3.19524C109.652 3.00031 109.091 2.90285 108.408 2.90285C107.726 2.90285 107.189 3.00031 106.725 3.19524V14.7799C107.187 14.9997 107.749 15.0971 108.408 15.0971C109.068 15.0971 109.628 14.9997 110.115 14.7799V3.19524Z" fill="#F7DD43"/>
<path d="M120.893 11.4127H119.844V17.7783H115.869V0.219779H120.893C123.284 0.219779 125.088 0.707092 126.502 1.70656V9.92589C125.113 10.9024 123.282 11.4127 120.893 11.4127ZM122.552 3.24303C122.187 2.97548 121.698 2.85318 120.868 2.85318H119.794V8.77927H120.868C121.673 8.77927 122.16 8.65697 122.552 8.41427V3.24303Z" fill="#F7DD43"/>
<path d="M134.817 17.7783V11.4127H131.891V17.7783H127.941V1.29185C129.38 0.437625 131.404 0 133.355 0C135.306 0 137.305 0.439537 138.744 1.29185V17.7783H134.817ZM134.817 3.04809C134.402 2.85316 133.89 2.7557 133.353 2.7557C132.816 2.7557 132.304 2.85316 131.889 3.04809V8.63211H134.815V3.04809H134.817Z" fill="#F7DD43"/>
<path d="M13.2129 47.9248H17.5928C17.5049 49.3604 17.1094 50.6348 16.4062 51.748C15.7129 52.8613 14.7412 53.7305 13.4912 54.3555C12.251 54.9805 10.7568 55.293 9.00879 55.293C7.6416 55.293 6.41602 55.0586 5.33203 54.5898C4.24805 54.1113 3.32031 53.4277 2.54883 52.5391C1.78711 51.6504 1.20605 50.5762 0.805664 49.3164C0.405273 48.0566 0.205078 46.6455 0.205078 45.083V43.6035C0.205078 42.041 0.410156 40.6299 0.820312 39.3701C1.24023 38.1006 1.83594 37.0215 2.60742 36.1328C3.38867 35.2441 4.32129 34.5605 5.40527 34.082C6.48926 33.6035 7.7002 33.3643 9.03809 33.3643C10.8154 33.3643 12.3145 33.6865 13.5352 34.3311C14.7656 34.9756 15.7178 35.8643 16.3916 36.9971C17.0752 38.1299 17.4854 39.4189 17.6221 40.8643H13.2275C13.1787 40.0049 13.0078 39.2773 12.7148 38.6816C12.4219 38.0762 11.9775 37.6221 11.3818 37.3193C10.7959 37.0068 10.0146 36.8506 9.03809 36.8506C8.30566 36.8506 7.66602 36.9873 7.11914 37.2607C6.57227 37.5342 6.11328 37.9492 5.74219 38.5059C5.37109 39.0625 5.09277 39.7656 4.90723 40.6152C4.73145 41.4551 4.64355 42.4414 4.64355 43.5742V45.083C4.64355 46.1865 4.72656 47.1582 4.89258 47.998C5.05859 48.8281 5.3125 49.5312 5.6543 50.1074C6.00586 50.6738 6.45508 51.1035 7.00195 51.3965C7.55859 51.6797 8.22754 51.8213 9.00879 51.8213C9.92676 51.8213 10.6836 51.6748 11.2793 51.3818C11.875 51.0889 12.3291 50.6543 12.6416 50.0781C12.9639 49.502 13.1543 48.7842 13.2129 47.9248ZM29.1504 37.3193L23.3496 55H18.6768L26.6016 33.6719H29.5752L29.1504 37.3193ZM33.9697 55L28.1543 37.3193L27.6855 33.6719H30.6885L38.6572 55H33.9697ZM33.7061 47.0605V50.5029H22.4414V47.0605H33.7061ZM54.3457 51.5723V55H43.6084V51.5723H54.3457ZM45.0293 33.6719V55H40.6348V33.6719H45.0293ZM71.1768 51.5723V55H59.8242V51.5723H71.1768ZM61.2598 33.6719V55H56.8652V33.6719H61.2598ZM69.6973 42.3584V45.6982H59.8242V42.3584H69.6973ZM71.1621 33.6719V37.1143H59.8242V33.6719H71.1621ZM91.0986 33.6719V55H86.7041L78.1348 40.7031V55H73.7402V33.6719H78.1348L86.7188 47.9834V33.6719H91.0986ZM101.47 55H96.8262L96.8555 51.5723H101.47C102.622 51.5723 103.594 51.3135 104.385 50.7959C105.176 50.2686 105.771 49.502 106.172 48.4961C106.582 47.4902 106.787 46.2744 106.787 44.8486V43.8086C106.787 42.7148 106.67 41.7529 106.436 40.9229C106.211 40.0928 105.874 39.3945 105.425 38.8281C104.976 38.2617 104.424 37.8369 103.77 37.5537C103.115 37.2607 102.363 37.1143 101.514 37.1143H96.7383V33.6719H101.514C102.939 33.6719 104.243 33.916 105.425 34.4043C106.616 34.8828 107.646 35.5713 108.516 36.4697C109.385 37.3682 110.054 38.4424 110.522 39.6924C111.001 40.9326 111.24 42.3145 111.24 43.8379V44.8486C111.24 46.3623 111.001 47.7441 110.522 48.9941C110.054 50.2441 109.385 51.3184 108.516 52.2168C107.656 53.1055 106.626 53.7939 105.425 54.2822C104.233 54.7607 102.915 55 101.47 55ZM99.3164 33.6719V55H94.9219V33.6719H99.3164ZM122.783 37.3193L116.982 55H112.31L120.234 33.6719H123.208L122.783 37.3193ZM127.603 55L121.787 37.3193L121.318 33.6719H124.321L132.29 55H127.603ZM127.339 47.0605V50.5029H116.074V47.0605H127.339ZM120.308 32.4707L123.179 27.959H127.764L123.735 32.4707H120.308ZM134.268 33.6719H142.222C143.853 33.6719 145.254 33.916 146.426 34.4043C147.607 34.8926 148.516 35.6152 149.15 36.5723C149.785 37.5293 150.103 38.7061 150.103 40.1025C150.103 41.2451 149.907 42.2266 149.517 43.0469C149.136 43.8574 148.594 44.5361 147.891 45.083C147.197 45.6201 146.382 46.0498 145.444 46.3721L144.053 47.1045H137.139L137.109 43.6768H142.251C143.022 43.6768 143.662 43.54 144.17 43.2666C144.678 42.9932 145.059 42.6123 145.312 42.124C145.576 41.6357 145.708 41.0693 145.708 40.4248C145.708 39.7412 145.581 39.1504 145.327 38.6523C145.073 38.1543 144.688 37.7734 144.17 37.5098C143.652 37.2461 143.003 37.1143 142.222 37.1143H138.662V55H134.268V33.6719ZM146.191 55L141.328 45.4932L145.972 45.4639L150.894 54.7949V55H146.191ZM158.159 33.6719V55H153.779V33.6719H158.159ZM179.795 43.8379V44.8486C179.795 46.4697 179.575 47.9248 179.136 49.2139C178.696 50.5029 178.076 51.6016 177.275 52.5098C176.475 53.4082 175.518 54.0967 174.404 54.5752C173.301 55.0537 172.075 55.293 170.728 55.293C169.39 55.293 168.164 55.0537 167.051 54.5752C165.947 54.0967 164.99 53.4082 164.18 52.5098C163.369 51.6016 162.739 50.5029 162.29 49.2139C161.851 47.9248 161.631 46.4697 161.631 44.8486V43.8379C161.631 42.207 161.851 40.752 162.29 39.4727C162.729 38.1836 163.35 37.085 164.15 36.1768C164.961 35.2686 165.918 34.5752 167.021 34.0967C168.135 33.6182 169.36 33.3789 170.698 33.3789C172.046 33.3789 173.271 33.6182 174.375 34.0967C175.488 34.5752 176.445 35.2686 177.246 36.1768C178.057 37.085 178.682 38.1836 179.121 39.4727C179.57 40.752 179.795 42.207 179.795 43.8379ZM175.356 44.8486V43.8086C175.356 42.6758 175.254 41.6797 175.049 40.8203C174.844 39.9609 174.541 39.2383 174.141 38.6523C173.74 38.0664 173.252 37.627 172.676 37.334C172.1 37.0312 171.44 36.8799 170.698 36.8799C169.956 36.8799 169.297 37.0312 168.721 37.334C168.154 37.627 167.671 38.0664 167.271 38.6523C166.88 39.2383 166.582 39.9609 166.377 40.8203C166.172 41.6797 166.069 42.6758 166.069 43.8086V44.8486C166.069 45.9717 166.172 46.9678 166.377 47.8369C166.582 48.6963 166.885 49.4238 167.285 50.0195C167.686 50.6055 168.174 51.0498 168.75 51.3525C169.326 51.6553 169.985 51.8066 170.728 51.8066C171.47 51.8066 172.129 51.6553 172.705 51.3525C173.281 51.0498 173.765 50.6055 174.155 50.0195C174.546 49.4238 174.844 48.6963 175.049 47.8369C175.254 46.9678 175.356 45.9717 175.356 44.8486Z" fill="url(#paint0_linear_175_1815)"/>
<defs>
<linearGradient id="paint0_linear_175_1815" x1="90" y1="26" x2="90" y2="64" gradientUnits="userSpaceOnUse">
<stop stop-color="white"/>
<stop offset="1" stop-color="#D9D9D9" stop-opacity="0.8"/>
</linearGradient>
</defs>
</svg>
